<?xml version="1.0" encoding="UTF-8" standalone="no"?>
<!-- Created with Inkscape (http://www.inkscape.org/) -->

<svg
   width="210mm"
   height="297mm"
   viewBox="0 0 210 297"
   version="1.1"
   id="svg1"
   xml:space="preserve"
   inkscape:version="1.4 (86a8ad7, 2024-10-11)"
   sodipodi:docname="drawing.svg"
   xmlns:inkscape="http://www.inkscape.org/namespaces/inkscape"
   xmlns:sodipodi="http://sodipodi.sourceforge.net/DTD/sodipodi-0.dtd"
   xmlns="http://www.w3.org/2000/svg"
   xmlns:svg="http://www.w3.org/2000/svg"><sodipodi:namedview
     id="namedview1"
     pagecolor="#ffffff"
     bordercolor="#000000"
     borderopacity="0.25"
     inkscape:showpageshadow="2"
     inkscape:pageopacity="0.0"
     inkscape:pagecheckerboard="0"
     inkscape:deskcolor="#d1d1d1"
     inkscape:document-units="mm"
     inkscape:zoom="1.9075223"
     inkscape:cx="128.70099"
     inkscape:cy="364.08487"
     inkscape:window-width="1920"
     inkscape:window-height="1111"
     inkscape:window-x="-9"
     inkscape:window-y="-9"
     inkscape:window-maximized="1"
     inkscape:current-layer="layer1" /><defs
     id="defs1" /><g
     inkscape:label="Layer 1"
     inkscape:groupmode="layer"
     id="layer1"><rect
       style="fill:none;fill-opacity:1;stroke:#3bb789;stroke-width:2;stroke-linejoin:round;stroke-dasharray:none;stroke-opacity:1"
       id="rect1"
       width="68.405144"
       height="35.948036"
       x="48.161598"
       y="58.282631"
       ry="17.974018" /><rect
       style="fill:none;fill-opacity:1;stroke:#3bb789;stroke-width:2;stroke-linejoin:round;stroke-dasharray:none;stroke-opacity:1"
       id="rect2"
       width="68.405144"
       height="35.948036"
       x="48.161598"
       y="58.282631"
       ry="17.974018" /><path
       id="rect1-4"
       style="fill:none;fill-opacity:1;stroke:#595e5c;stroke-width:1.3625;stroke-linejoin:round;stroke-dasharray:none;stroke-opacity:0.85490197"
       d="m 57.843626,66.932242 c -3.768366,0.133106 -7.2262,3.173583 -8.061425,7.09774 -0.924364,3.802976 0.69382,8.101392 3.846218,10.140203 1.757221,1.232329 3.906284,1.538737 5.966749,1.421031 15.817968,-0.0091 31.636505,0.01828 47.454132,-0.0137 3.79182,-0.139531 7.25782,-3.23429 8.05673,-7.191512 0.88879,-3.813614 -0.77615,-8.091209 -3.94622,-10.096712 -1.74476,-1.188896 -3.85758,-1.482359 -5.88775,-1.366835 -15.809439,0.0065 -31.619155,-0.01306 -47.428434,0.0098 z" /><path
       id="rect1-4-7"
       style="fill:none;fill-opacity:1;stroke:#edeced;stroke-width:0.929066;stroke-linejoin:round;stroke-dasharray:none;stroke-opacity:1"
       d="m 58.765674,71.640017 c -3.634366,0.06417 -6.969244,1.530006 -7.774768,3.421868 -0.891496,1.833438 0.669147,3.905732 3.70945,4.888656 1.694736,0.594113 3.76738,0.741835 5.754578,0.685089 15.255498,-0.0044 30.511544,0.0088 45.766706,-0.0066 3.65699,-0.06727 6.99974,-1.559272 7.77024,-3.467074 0.85718,-1.838569 -0.74855,-3.900824 -3.80589,-4.867691 -1.68272,-0.573174 -3.7204,-0.714654 -5.67838,-0.65896 -15.247278,0.0031 -30.494818,-0.0063 -45.741936,0.0047 z" /></g></svg>
